<svg xmlns="http://www.w3.org/2000/svg" viewBox="0 0 268.5 105.7"><path d="M198.7 105.7c-3.1 0-5.9-.8-8-2.3l.7-1.3c2 1.4 4.5 2.2 7.3 2.2 4.9 0 5.9-1.9 5.9-3.5 0-2.2-2.3-2.8-6-3-5.3-.3-7.3-1.6-7.3-4.5 0-3.1 2.7-4.9 7.2-4.9 2.6 0 4.9.6 6.7 1.9l-.7 1.3c-1.7-1.1-3.8-1.7-6.2-1.7-3.3 0-5.3 1.3-5.3 3.4 0 2.2 2.3 2.8 6 3 5.3.3 7.3 1.6 7.3 4.5 0 3.1-2.7 4.9-7.6 4.9zm22.4-.3V88.5h7.5c5.3 0 8.7 3.3 8.7 8.4 0 5.1-3.4 8.4-8.7 8.4h-7.5zm1.6-1.3h5.6c4.5 0 7.3-2.7 7.3-7.1 0-4.4-2.8-7.1-7.3-7.1h-5.6v14.2zm43.8 1.3l-7.1-9.8-5.7 4.7v5.1h-1.6V88.5h1.6v10.1l12.1-10.1h2.1l-7.3 6.1 7.9 10.8zM23.9 40.9L13.3 68.4h-2.7L1.1 41h3.3L12 64.1 20.7 41l3.2-.1m1.1-.7h-4.7l-.2.5-8 21.2-7-21.1-.2-.5H0l.3 1 9.6 27.5.2.5h3.7l.2-.5 10.5-27.5.5-1.1zm33.7.7v27.5h-2.9V40.9h2.9m.8-.8H55v29.1h4.5V40.1zm42.3.3c3.1 0 5.8.9 8.1 2.6l-1.9 2.1c-1.2-1.2-3.6-2.1-5.8-2.1-3.4 0-5.5 1.6-5.5 4.3 0 3.1 3.7 4 7.3 5.3 3.6 1.3 7.2 3.1 7.2 7.6 0 6.2-5.4 8.5-9.3 8.5-3.9 0-6.8-1.1-9.6-3.9l2.2-2c2.7 2.7 4.8 3.2 7.5 3.2 3.1 0 6.2-1.7 6.2-5.3 0-3.3-3.1-4.5-6.5-5.8-3.8-1.4-7.8-2.8-7.8-7.3-.2-4.9 3.6-7.2 7.9-7.2m0-.8c-5.4 0-8.8 3.2-8.8 8.1 0 4.9 4.3 6.5 8.1 7.9l.2.1c3.6 1.4 6 2.4 6 5.1 0 1.5-.5 2.6-1.6 3.5-1 .7-2.3 1.1-3.8 1.1-2.7 0-4.5-.5-7-2.9l-.5-.5-.5.5-2.2 2-.6.5.6.6c2.9 2.8 6 4.1 10.2 4.1 4.1 0 10.1-2.5 10.1-9.2 0-5.1-4-7-7.6-8.3-.4-.1-.8-.3-1.2-.4-3.5-1.2-5.6-2.2-5.6-4.2 0-1.1.4-1.9 1.2-2.5.8-.6 2.1-1 3.6-1 1.9 0 4.2.8 5.2 1.9l.6.6.5-.6 1.9-2.1.5-.6-.7-.5c-2.4-2.3-5.3-3.2-8.6-3.2zm46.4 1.2v27.5h-2.9V40.8h2.9m.8-.8h-4.5v29.1h4.5V40zm47.3.2c7.9 0 14 6.3 14 14.2 0 7.9-6.1 14.2-14 14.2s-14-6.3-14-14.2c0-7.8 6.1-14.2 14-14.2m0 25.8c.1 0 .1 0 0 0 6.3 0 10.9-5.1 10.9-11.6s-4.6-11.5-10.9-11.5c-6.3 0-10.9 5.1-10.9 11.6 0 6.4 4.7 11.5 10.9 11.5m.1-26.5v.8-.8c-8.3 0-14.8 6.6-14.8 15s6.5 14.9 14.8 14.9 14.8-6.6 14.8-15c-.1-8.4-6.6-14.9-14.8-14.9zm-.1 26.5v-.8c-5.8 0-10.2-4.6-10.2-10.8 0-6.2 4.4-10.8 10.2-10.8 5.8 0 10.2 4.6 10.2 10.8 0 6.2-4.4 10.8-10.2 10.8v.8zm69.5-25.4v27.5h-2.2l-16.4-22v22.1h-2.7V40.7h2.2l16.3 22V40.6h2.8m.7-.8h-4.3v20.6l-15.1-20.3-.2-.3h-3.4v29h4.3V48.3L263 68.5l.2.3h3.4V40.6l-.1-.8zM18 17.1V2.6l-.5-.1-6.9 14.6H9.1L2.3 2.5l-.6.1v14.5H.1V.3H3l6.9 14.9 7-14.9h2.8v16.8zm30.7 0l-2.2-4.6h-9.9l-2.2 4.6h-1.8L40.5.3h2l7.9 16.8h-1.7zm-11.5-6h8.6l-4.3-9.3-4.3 9.3zm26.2 6V.3h9.7c3.6 0 5.6 1.8 5.6 5s-2 5-5.6 5h-8v6.8h-1.7zM65.2 9h7.5C75.5 9 77 7.7 77 5.3s-1.4-3.6-4.3-3.6h-7.5V9zm26.7 8.1V.3h9.9c2.5 0 5.5.7 5.5 4.3 0 1.8-.9 3-2.6 3.6l-.9.3.9.3c2.1.6 3.1 1.9 3.1 3.9 0 3.6-3.1 4.4-5.7 4.4H91.9zm1.7-1.4h8.4c3.4 0 4.1-1.7 4.1-3.2 0-2.1-1.4-3.2-4.1-3.2h-8.4v6.4zm0-7.8h8.1c3.2 0 3.9-1.7 3.9-3.1 0-1.4-.7-3.1-3.9-3.1h-8.1v6.2zm35.9 9.5c-5.5 0-9.2-3.5-9.2-8.7S124 0 129.5 0c5.5 0 9.2 3.5 9.2 8.7s-3.7 8.7-9.2 8.7zm0-15.9c-4.5 0-7.4 2.9-7.4 7.2s3 7.2 7.4 7.2c4.5 0 7.4-2.9 7.4-7.2s-3-7.2-7.4-7.2zM164 17.1l-6.1-7.4-6.2 7.4h-2.1l7.2-8.6L150 .3h2.2l5.8 7 5.8-7h2.1l-6.8 8.2 7.1 8.6z" fill="#c3c5c5"/></svg>