<svg xmlns="http://www.w3.org/2000/svg" viewBox="0 0 167 40"><style>.bg-light{fill:#dcdede;stroke:none;stroke-miterlimit:10}</style><path class="bg-light" d="M124.2 11.6c-2.1 0-4.1.9-5.5 2.4V6c0-.3-.2-.5-.5-.5h-2.8c-.3 0-.5.2-.5.5v21.5c0 .3.2.5.5.5h2.8c.3 0 .5-.2.5-.5V26c1.4 1.5 3.4 2.4 5.5 2.4 4.4 0 7.9-3.8 7.9-8.4s-3.6-8.4-7.9-8.4zm-.7 13.4c-2.6 0-4.8-2.2-4.8-5v-.1c0-2.8 2.2-5 4.8-5 2.7 0 4.8 2.3 4.8 5s-2.1 5.1-4.8 5.1zm18.8-13.4c-4.7 0-8.6 3.8-8.6 8.4s3.8 8.4 8.6 8.4 8.6-3.8 8.6-8.4-3.8-8.4-8.6-8.4zm0 13.4c-2.7 0-4.8-2.3-4.8-5s2.2-5 4.8-5 4.8 2.3 4.8 5-2.1 5-4.8 5zM90.1 12h-2.8c-.3 0-.5.2-.5.5V14c-1.4-1.5-3.4-2.4-5.5-2.4-4.4 0-7.9 3.8-7.9 8.4s3.5 8.4 7.9 8.4c2.1 0 4.1-.9 5.5-2.4v1.5c0 .3.2.5.5.5h2.8c.3 0 .5-.2.5-.5v-15c0-.3-.3-.5-.5-.5zM82 25c-2.7 0-4.8-2.3-4.8-5s2.2-5 4.8-5c2.6 0 4.8 2.2 4.8 5v.1c0 2.7-2.1 4.9-4.8 4.9zm22.1-13.4c-2.1 0-4.1.9-5.5 2.4v-1.5c0-.3-.2-.5-.5-.5h-2.8c-.3 0-.5.2-.5.5V34c0 .3.2.5.5.5h2.8c.3 0 .5-.2.5-.5v-8c1.4 1.5 3.4 2.4 5.5 2.4 4.4 0 7.9-3.8 7.9-8.4s-3.6-8.4-7.9-8.4zm-.7 13.4c-2.6 0-4.8-2.2-4.8-5v-.1c0-2.8 2.2-5 4.8-5 2.7 0 4.8 2.3 4.8 5s-2.1 5.1-4.8 5.1zM65.1 11.6c-2.1 0-4 1.2-4.9 3.1-1-1.9-3.1-3.2-5.3-3.1-1.7 0-3.3.8-4.3 2.2v-1.3c0-.3-.2-.5-.5-.5h-2.8c-.3 0-.5.2-.5.5v15c0 .3.2.5.5.5h2.8c.3 0 .5-.2.5-.5v-9c.1-2 1.5-3.6 3.2-3.6 1.8 0 3.3 1.5 3.3 3.4v9.2c0 .3.2.5.5.5h2.8c.3 0 .5-.2.5-.5v-9.4c.2-1.8 1.6-3.2 3.2-3.2 1.8 0 3.3 1.5 3.3 3.4v9.2c0 .3.2.5.5.5h2.8c.3 0 .5-.2.5-.5V17.2c-.3-3.1-2.9-5.6-6.1-5.6zm100.8 15.7l-4.9-7.4 4.8-7.3c.1-.2.1-.5-.1-.6-.1 0-.1-.1-.2-.1h-3.2c-.2 0-.5.1-.6.3l-2.8 4.7-2.8-4.7c-.1-.2-.4-.3-.6-.3h-3.2c-.2 0-.4.2-.4.4 0 .1 0 .2.1.2l4.8 7.3-4.9 7.4c-.1.2-.1.5.1.6.1 0 .1.1.2.1h3.2c.2 0 .5-.1.6-.3l2.9-4.8 2.9 4.8c.1.2.4.3.6.3h3.2c.2 0 .4-.2.4-.4 0 0 0-.1-.1-.2zM19.6 1.4C9.3 1.4 1 9.7 1 20s8.3 18.6 18.6 18.6S38.1 30.3 38.1 20 29.8 1.4 19.6 1.4zm8.8 23.2C22 31 10.7 28.9 10.7 28.9s-2-11.3 4.3-17.7c3.5-3.5 9.4-3.4 13.1.3s3.8 9.5.3 13.1z"/><path class="bg-light" d="M21.7 12.3l-1.8 3.8-3.8 1.8 3.8 1.8 1.8 3.7 1.8-3.7 3.8-1.8-3.8-1.8z"/></svg>