<svg id="device" xmlns="http://www.w3.org/2000/svg" xmlns:xlink="http://www.w3.org/1999/xlink" x="0px" y="0px" viewBox="0 0 589.7 276.6" style="enable-background:new 0 0 589.7 276.6;" xml:space="preserve">
  <path id="outer" class="stroke" d="M589.2,206.1v29.1c0,0-1.3,41-38.9,41c-37.6,0-473.4,0-511,0s-38.9-41-38.9-41V41.5 c0,0,1.3-41,38.9-41s473.4,0,511,0c37.6,0,38.9,41,38.9,41V206.1z"/>
  <path id="inner" class="stroke" d="M541.1,10.1c11.6,0,21.1,9.5,21.1,21.1V245c0,11.6-9.5,21.1-21.1,21.1h-486c-11.6,0-21.1-9.5-21.1-21.1V31.2 c0-11.6,9.5-21.1,21.1-21.1H541.1 M541.1,9.1h-486C42.9,9.1,33,19,33,31.2V245c0,12.2,9.9,22.1,22.1,22.1h486 c12.2,0,22.1-9.9,22.1-22.1V31.2C563.2,19,553.3,9.1,541.1,9.1L541.1,9.1z"/>
  <path id="speaker1" class="stroke" d="M18.9,122.9c0.3,0,0.6,0.3,0.6,0.6v31.7c0,0.3-0.3,0.6-0.6,0.6h-4.9c-0.3,0-0.6-0.3-0.6-0.6 v-31.7c0-0.3,0.3-0.6,0.6-0.6H18.9z"/>
  <path id="speaker2" class="stroke" d="M577.9,122.9c0.3,0,0.6,0.3,0.6,0.6v31.7c0,0.3-0.3,0.6-0.6,0.6h-4.9c-0.3,0-0.6-0.3-0.6-0.6 v-31.7c0-0.3,0.3-0.6,0.6-0.6H577.9z"/>
</svg>     