<?xml version="1.0" encoding="utf-8"?>
<!-- Generator: Adobe Illustrator 22.1.0, SVG Export Plug-In . SVG Version: 6.00 Build 0)  -->
<svg version="1.1" id="Layer_1" xmlns="http://www.w3.org/2000/svg" xmlns:xlink="http://www.w3.org/1999/xlink" x="0px" y="0px"
	 viewBox="0 0 369.5 35.7" style="enable-background:new 0 0 369.5 35.7;" xml:space="preserve">
<style type="text/css">
	.st0{fill:#DCDEDE;}
</style>
<g id="SDK">
	<path class="st0" d="M297.2,32.6c-2.9,0-5.6-0.8-7.6-2.2l0.7-1.2c1.9,1.4,4.3,2.1,6.9,2.1c4.7,0,5.6-1.8,5.6-3.4
		c0-2.1-2.2-2.6-5.8-2.9c-5-0.3-6.9-1.5-6.9-4.3c0-2.9,2.5-4.7,6.8-4.7c2.5,0,4.6,0.6,6.3,1.8l-0.7,1.2c-1.6-1.1-3.6-1.6-5.9-1.6
		c-3.1,0-5.1,1.3-5.1,3.3c0,2.1,2.2,2.6,5.8,2.9c5,0.3,6.9,1.5,6.9,4.3C304.4,30.9,301.8,32.6,297.2,32.6z"/>
	<path class="st0" d="M318.5,32.3v-16h7.1c5,0,8.2,3.1,8.2,8s-3.2,8-8.2,8H318.5z M320,31.1h5.3c4.3,0,6.9-2.6,6.9-6.8
		s-2.6-6.8-6.9-6.8H320V31.1z"/>
	<polygon class="st0" points="361.6,32.3 354.8,23 349.4,27.5 349.4,32.3 347.9,32.3 347.9,16.4 349.4,16.4 349.4,25.9 360.9,16.4 
		362.9,16.4 356,22.1 363.5,32.3 	"/>
</g>
<g id="Vision">
	<g>
		<path class="st0" d="M24.7,5.4l-10,26.1l-2.6,0L3.1,5.5l3.2,0l7.3,21.9l0,0l8.3-22L24.7,5.4 M25.8,4.7l-1.1,0l-2.9,0l-0.5,0
			l-0.2,0.5l-7.5,20l-6.6-20L6.8,4.7l-0.5,0l-3.2,0L2,4.7l0.3,1l9.1,26.1l0.2,0.5l0.5,0l2.6,0l0.5,0l0.2-0.5l10-26.1L25.8,4.7
			L25.8,4.7z"/>
	</g>
	<g>
		<path class="st0" d="M57.9,5.4l0,26.1l-2.8,0l0-26.1L57.9,5.4 M58.6,4.6l-0.8,0l-2.8,0l-0.8,0l0,0.8l0,26.1l0,0.8l0.8,0l2.8,0
			l0.8,0l0-0.8l0-26.1L58.6,4.6L58.6,4.6z"/>
	</g>
	<g>
		<path class="st0" d="M98.8,4.9c3,0,5.5,0.8,7.7,2.5l-1.8,2c-1.1-1.1-3.4-2-5.5-2c0,0,0,0,0,0C96.1,7.4,94,9,94,11.5
			c0,2.9,3.5,3.8,6.9,5.1c3.4,1.3,6.8,2.9,6.8,7.3c0,5.9-5.1,8.1-8.8,8.1c0,0,0,0,0,0c-3.7,0-6.5-1-9.2-3.7l2.1-1.9
			c2.6,2.6,4.5,3,7.1,3c0,0,0,0,0,0c3,0,5.9-1.6,5.9-5.1c0-3.1-3-4.3-6.2-5.5c-3.6-1.3-7.4-2.7-7.4-6.9C91.2,7.1,94.7,4.9,98.8,4.9
			C98.8,4.9,98.8,4.9,98.8,4.9 M98.8,4.1L98.8,4.1L98.8,4.1c-5.1,0-8.4,3-8.4,7.7c0,4.7,4.1,6.2,7.7,7.5l0.2,0.1
			c3.5,1.3,5.7,2.3,5.7,4.8c0,1.4-0.5,2.5-1.5,3.3c-0.9,0.7-2.2,1.1-3.6,1.1c-2.6,0-4.3-0.4-6.6-2.8l-0.5-0.5l-0.5,0.5l-2.1,1.9
			l-0.6,0.5l0.6,0.6c2.7,2.7,5.7,3.9,9.7,3.9c3.9,0,9.6-2.4,9.6-8.8c0-4.9-3.8-6.7-7.3-8c-0.4-0.1-0.7-0.3-1.1-0.4
			c-3.3-1.2-5.3-2-5.3-4c0-1,0.4-1.8,1.1-2.4c0.8-0.6,2-0.9,3.4-0.9c1.8,0,4,0.8,5,1.8l0.6,0.6l0.5-0.6l1.8-2l0.5-0.6L107,6.8
			C104.7,5,102,4.1,98.8,4.1L98.8,4.1z"/>
	</g>
	<g>
		<path class="st0" d="M142.9,5.3l0,26.1l-2.8,0l0-26.1L142.9,5.3 M143.7,4.5l-0.8,0l-2.8,0l-0.8,0l0,0.8l0,26.1l0,0.8l0.8,0l2.8,0
			l0.8,0l0-0.8l0-26.1L143.7,4.5L143.7,4.5z"/>
	</g>
	<g>
		<path class="st0" d="M188.7,4.8c7.5,0,13.3,6,13.3,13.5c0,7.5-5.8,13.5-13.3,13.5c0,0,0,0,0,0c-7.5,0-13.3-6-13.3-13.5
			C175.4,10.8,181.1,4.8,188.7,4.8C188.7,4.8,188.7,4.8,188.7,4.8 M188.7,29.2C188.7,29.2,188.7,29.2,188.7,29.2
			c6,0,10.4-4.8,10.4-11c0-6.2-4.4-11-10.4-11c0,0,0,0,0,0c-6,0-10.4,4.8-10.4,11C178.3,24.4,182.7,29.2,188.7,29.2 M188.7,4
			L188.7,4L188.7,4c-7.9,0-14.1,6.3-14.1,14.3c0,8,6.2,14.2,14.1,14.2c7.9,0,14.1-6.3,14.1-14.3C202.8,10.3,196.6,4,188.7,4L188.7,4
			z M188.7,29.2v-0.8c-5.5,0-9.6-4.4-9.6-10.2c0-2.8,1-5.4,2.7-7.3c1.8-1.9,4.2-2.9,6.9-3c5.5,0,9.6,4.4,9.6,10.2
			c0,5.8-4.1,10.2-9.6,10.2L188.7,29.2L188.7,29.2z"/>
	</g>
	<g>
		<path class="st0" d="M254.7,5.1l0,26.1l-2.1,0l-15.6-21l0,21l-2.6,0l0-26.1l2.1,0l15.6,21l0-21L254.7,5.1 M255.4,4.4l-0.8,0
			l-2.6,0l-0.8,0l0,0.8l0,18.7L237.1,4.7l-0.2-0.3l-0.4,0l-2.1,0l-0.7,0l0,0.7l0,26.1l0,0.8l0.8,0l2.6,0l0.7,0l0-0.7l0-18.7
			L252,31.7l0.2,0.3l0.4,0l2.1,0l0.7,0l0-0.8l0-26.1L255.4,4.4L255.4,4.4z"/>
	</g>
</g>
</svg>
