<svg xmlns="http://www.w3.org/2000/svg" viewBox="0 0 328.5 385.1"><path d="M31.1 127.5c-12.6 0-22.7 10.2-22.7 22.7v95.2c0 12.6 10.2 22.7 22.7 22.7 12.6 0 22.7-10.2 22.7-22.7v-95.2c0-12.5-10.2-22.7-22.7-22.7M214.4 42l15.9-29c.8-1.5.3-3.4-1.2-4.3-1.5-.8-3.5-.3-4.3 1.3l-16 29.3c-13.5-6-28.6-9.4-44.6-9.4-15.9 0-31 3.3-44.4 9.3l-16-29.2c-.8-1.5-2.8-2.1-4.3-1.3s-2.1 2.8-1.3 4.3l15.9 29c-31.2 16.1-52.3 46.7-52.3 81.9h204.8c0-35.2-21-65.8-52.2-81.9m-96.8 44.8c-4.7 0-8.6-3.8-8.6-8.6 0-4.7 3.8-8.6 8.6-8.6 4.7 0 8.6 3.9 8.6 8.6 0 4.7-3.8 8.6-8.6 8.6m93.3 0c-4.7 0-8.6-3.8-8.6-8.6 0-4.7 3.8-8.6 8.6-8.6 4.7 0 8.6 3.9 8.6 8.6 0 4.7-3.9 8.6-8.6 8.6m-148.3 45v147.6c0 13.4 10.8 24.3 24.3 24.3h16.5v50.4c0 12.5 10.2 22.7 22.7 22.7 12.6 0 22.7-10.2 22.7-22.8v-50.4h30.7V354c0 12.5 10.2 22.7 22.7 22.7 12.6 0 22.7-10.2 22.7-22.7v-50.4h16.6c13.4 0 24.3-10.8 24.3-24.3V131.7l-203.2.1zm257.6 18.4c0-12.6-10.2-22.7-22.7-22.7-12.6 0-22.7 10.2-22.7 22.7v95.2c0 12.6 10.2 22.7 22.7 22.7 12.6 0 22.7-10.2 22.7-22.7v-95.2z" fill="#898888"/></svg>