<svg xmlns="http://www.w3.org/2000/svg" viewBox="0 0 196 196"><path d="M32.9 137.5h-4.6v-61h4.6v61zm-2.4-75.9c-1.9 0-3.5-1.5-3.5-3.5s1.6-3.5 3.5-3.5c2 0 3.6 1.5 3.6 3.5s-1.6 3.5-3.6 3.5zm46.7 77.1c-22.3 0-36.4-16.2-36.4-42.1 0-25.7 14.2-42 36.4-42s36.4 16.3 36.4 42c0 25.9-14.1 42.1-36.4 42.1zm0-79.9c-19.4 0-31.8 14.7-31.8 37.8 0 23.2 12.5 37.9 31.8 37.9 19.4 0 31.8-14.7 31.8-37.9 0-23.1-12.4-37.8-31.8-37.8zm68.9 79.9c-16.8 0-28.8-9.5-29.4-23h4.5c.7 11.1 11.1 18.9 25.3 18.9 13.9 0 23.5-7.9 23.5-18.5 0-8.6-5.8-13.5-19.5-16.9l-9.7-2.4c-15.1-3.9-22-10-22-20.2 0-12.7 11.9-21.9 26.8-21.9 15.4 0 26.9 9.1 27.4 21.1h-4.5c-.6-9.8-10.2-16.9-23-16.9-12.3 0-22.1 7.4-22.1 17.7 0 8.2 6 12.9 19.1 16.1l9.1 2.3c15.8 3.9 22.9 10 22.9 20.8.1 13.5-11.3 22.9-28.4 22.9z" fill="#898888"/></svg>