<svg id="linux-logo" xmlns="http://www.w3.org/2000/svg" viewBox="0 0 192.8 192.8"><style>.st0{fill-rule:evenodd;clip-rule:evenodd;fill:#898888}</style><path class="st0" d="M44.1 127.4H2.9v-1.5c7.2-.7 7.9-1.4 7.9-7.7V75.8c0-6.3-.7-7-7.9-7.7v-1.5h23.7v1.5c-7.9.6-8.7 1.4-8.7 7.7v42.9c0 5.9.9 6.9 6.9 6.9 10.9 0 17.1-7.7 18.2-22.6h1.2v24.4h-.1z"/><path d="M63.6 75.1c-2.4 0-4.4-2.5-4.4-5.5s2-5.5 4.4-5.5c2.4 0 4.4 2.5 4.4 5.5 0 3.1-2 5.5-4.4 5.5zm5.9 36.2c-2.8 10.4-7.4 16.7-12.3 16.7-4.1 0-6.8-3.7-6.8-9.6 0-2.4.4-4.9 1.5-8.8l3.6-14.1c.1-.3.4-1.2.8-2.9.4-1.5.7-2.6.7-3.4 0-1.8-.9-3-2.2-3-3.4 0-6.4 4.6-10.1 15.3l-1.2-.6c2-6.7 4.4-11.5 7-14.4 1.5-1.6 3.1-2.3 4.9-2.3 4.2 0 7.1 3.9 7.1 9.4 0 2.5-.9 7.2-2.1 11.7l-1.8 6.5-1.4 5.4-.7 2.6c-.3 1.2-.5 2.5-.5 3.3 0 1.8.9 3 2.1 3 3.4 0 7.2-5.6 10.2-15.1l1.2.3z" fill-rule="evenodd" clip-rule="evenodd" fill="#bababa"/><path class="st0" d="M92.7 83.6c3.2 0 6.4 1.5 8.2 4 1.8 2.6 2.1 4.3 2.1 12.2v19.1c0 5.4 1.1 6.4 7 7v1.5H89.2v-1.5c6-.6 7-1.6 7-6.9v-18.7c0-11.9-.7-13.6-5.2-13.6-4.2 0-8.1 3.5-9.9 8.8-1.8 5-2.2 8.6-2.2 17.4v6.1c0 5.3 1 6.3 7 6.9v1.5H65.1v-1.5c6-.6 7-1.6 7-6.9V93.3c0-4.7-.2-5.5-2-6.2-1-.5-2-.5-5.3-.8v-1.6c4.2-.1 10.4-.5 14-1.1V97c2.4-8.5 7.5-13.4 13.9-13.4zm35.1 1.1c4.8-.1 10.6-.5 14.1-1.1v35.3c0 5.4 1 6.4 7 7v1.5h-1l-6.3.4c-2.6.1-4.4.3-5.2.4-.3 0-.7.1-1.3.2v-13c-1.5 4.4-2.3 5.7-4 8.1-2.5 3.4-6.1 5.2-9.7 5.2-3.2 0-6.1-1.5-7.7-4.2-1.8-2.8-2.3-5.9-2.3-12.1v-19c0-4.7-.3-5.5-2-6.2-1.1-.4-2.6-.6-5.5-.8v-1.6c4.4-.1 11.1-.5 14.3-1.1v30.7c0 7.9 1.6 11.6 5.2 11.6 4.1 0 8.4-4.8 10.3-11.7 1-3.5 1.4-6.9 1.4-12.2v-8.8c0-4.7-.2-5.5-2-6.2-.9-.4-2.4-.6-5.3-.8v-1.6z"/><path class="st0" d="M181.9 119.7c2.9 5.1 3.9 5.8 8 6.2v1.5H170v-1.5c4.2-.5 5.4-1 5.4-2.6 0-.5-.4-1.4-.8-2.2l-1.2-2.3-6.4-11-4.8 8.3c-1.8 3.3-2.7 5.3-2.7 6.6 0 2.1 1.2 2.8 5.6 3.3v1.5h-16.7V126c4.4-.6 6.1-1.8 9.3-6.4 1.8-2.6 2-2.9 5-8l3.2-5.7-7.7-13.4c-2.7-4.7-3.8-5.6-8.2-6.1v-1.5h19.5v1.5c-3.6.4-4.9 1-4.9 2.4 0 .4.2 1 .6 1.7l1.1 2 5.5 9.5 4.3-7.3c1.2-2.2 1.9-3.9 1.9-5.2 0-1.8-1.3-2.6-5.3-3.1v-1.5h15.7v1.5c-4.6.7-6.6 2.3-9.4 7.1l-2 3.3-4.1 7 9 15.9z"/></svg>