<svg xmlns="http://www.w3.org/2000/svg" viewBox="0 0 716.33 202.21"><defs><style>.cls-2{clip-path:url(#clip-path)}.cls-3{fill:#77787b}</style><clipPath id="clip-path" transform="translate(-194.7 -188.64)"><path fill="none" d="M0 0h1105.75v584.13H0z"/></clipPath></defs><g id="Layer_2" data-name="Layer 2"><g class="cls-2" id="Layer_1-2" data-name="Layer 1"><path class="cls-3" d="M492.23 307.43l30.87 82h-15.66l-7.26-20.36h-32.3l-7 20.36h-15.53l30.87-82zm-8.46 15.21l-12.12 34.53h24.58l-12.06-34.53z" transform="translate(-194.7 -188.64)"/><path class="cls-3" d="M335.45 142h46.94v5.55l-30.81 42.25h30.99v10.98h-49.29v-6.58l30.36-41.22h-28.19V142z"/><g class="cls-2"><path class="cls-3" d="M636.26 330.64v58.78h-14v-7.72h-.22a18.79 18.79 0 0 1-7.35 6.26 23.07 23.07 0 0 1-10.32 2.26q-10.24 0-15.58-5.81t-5.35-18v-35.77h14v34.08q0 7.44 2.94 11.18t8.89 3.74a11.8 11.8 0 0 0 9.44-4.14q3.54-4.15 3.54-10.84v-34zm41.67-.97a17.74 17.74 0 0 1 3 .23 12.18 12.18 0 0 1 2.23.57v14A11.87 11.87 0 0 0 680 343a16 16 0 0 0-5.06-.71 10.73 10.73 0 0 0-8.61 4.29c-2.34 2.85-3.52 7.26-3.52 13.2v29.68h-13.87v-58.82h13.83v9.26h.23a16.24 16.24 0 0 1 5.72-7.51 15.52 15.52 0 0 1 9.21-2.72m55.24 44.94V386a29.92 29.92 0 0 1-9 3.51 49.93 49.93 0 0 1-11.84 1.35q-13.43 0-20.89-8T684 360.78q0-13.68 8-22.51a26.07 26.07 0 0 1 20.21-8.83q12.18 0 19 7.46t6.78 20.62v6.68h-40.33q.92 8.87 5.69 12.38t12.32 3.52a29.35 29.35 0 0 0 9.49-1.52 30.89 30.89 0 0 0 8-4m-8.87-20.53q0-6.85-3.17-10.46t-9-3.6a13 13 0 0 0-8.92 3.57q-3.94 3.57-5.26 10.49zM536.57 194.7v82h-14.24v-64.27h-.23l-25.44 64.26h-9.44l-26.07-64.26H461v64.26h-13.17v-82h20.41l23.56 60.78h.34L517 194.7zm11.91 6.24a7.55 7.55 0 0 1 2.48-5.75 8.37 8.37 0 0 1 5.92-2.32 8.24 8.24 0 0 1 6.06 2.38 7.7 7.7 0 0 1 2.4 5.69 7.43 7.43 0 0 1-2.45 5.65 8.48 8.48 0 0 1-6 2.29 8.32 8.32 0 0 1-6-2.31 7.47 7.47 0 0 1-2.43-5.63m15.26 75.75h-13.81v-58.77h13.83zm42-10.06a19.21 19.21 0 0 0 6.81-1.43 28.79 28.79 0 0 0 6.86-3.77v12.86a27.79 27.79 0 0 1-7.52 2.86 40.89 40.89 0 0 1-9.24 1q-13 0-21.09-8.2t-8.12-21q0-14.18 8.29-23.36t23.5-9.17a32 32 0 0 1 7.86 1 26.83 26.83 0 0 1 6.32 2.31V233a28.6 28.6 0 0 0-6.55-3.63 18.85 18.85 0 0 0-6.83-1.29q-8.18 0-13.21 5.32t-5 14.35q0 8.93 4.83 13.9t13.12 5M658.77 217a17.64 17.64 0 0 1 3 .22 13.44 13.44 0 0 1 2.24.57v14a12.13 12.13 0 0 0-3.18-1.51 15.61 15.61 0 0 0-5.06-.72 10.73 10.73 0 0 0-8.6 4.29q-3.52 4.29-3.52 13.21v29.67h-13.87v-58.81h13.84v9.26h.23a16.2 16.2 0 0 1 5.72-7.52 15.48 15.48 0 0 1 9.2-2.71m6 31.21q0-14.58 8.24-23.1t22.87-8.52q13.78 0 21.53 8.21t7.74 22.15q0 14.31-8.23 22.76t-22.41 8.46q-13.66 0-21.7-8t-8-21.93m14.41-.45q0 9.19 4.18 14.06t12 4.86q7.54 0 11.49-4.86t3.94-14.41q0-9.48-4.08-14.32t-11.47-4.83q-7.6 0-11.8 5.06t-4.21 14.44m66.56-14.36a6 6 0 0 0 1.88 4.67q1.89 1.68 8.35 4.25 8.3 3.31 11.64 7.47a15.44 15.44 0 0 1 3.34 10 16.11 16.11 0 0 1-6.37 13.32q-6.37 5-17.24 5a41.53 41.53 0 0 1-8.09-.88 36.26 36.26 0 0 1-7.52-2.26v-13.58a33.54 33.54 0 0 0 8.12 4.17 23.79 23.79 0 0 0 7.89 1.55q4.68 0 6.92-1.32a4.7 4.7 0 0 0 2.23-4.4 6.08 6.08 0 0 0-2.32-4.83q-2.31-2-8.78-4.55-7.65-3.19-10.86-7.2a15.81 15.81 0 0 1-3.2-10.18 16 16 0 0 1 6.18-13.06q6.32-5.12 16.38-5.12a39.44 39.44 0 0 1 6.92.69 30.24 30.24 0 0 1 6.4 1.77V232a29.58 29.58 0 0 0-6.4-3.15 21.52 21.52 0 0 0-7.26-1.31 10.59 10.59 0 0 0-6.15 1.54 4.89 4.89 0 0 0-2.2 4.23m31.16 14.81q0-14.58 8.23-23.1t22.92-8.48q13.78 0 21.53 8.21t7.75 22.15q0 14.31-8.24 22.76t-22.41 8.46q-13.67 0-21.7-8t-8-21.93m14.41-.45q0 9.19 4.17 14.06t12 4.86q7.54 0 11.49-4.86t4-14.41q0-9.48-4.09-14.32t-11.46-4.83q-7.6 0-11.81 5.06t-4.2 14.44m91.87-18.47h-20.79v47.45h-14v-47.48h-9.84v-11.32h9.84v-8.18q0-9.27 6-15.18t15.48-5.92a34.75 34.75 0 0 1 4.47.26 17.5 17.5 0 0 1 3.42.77v12a13.41 13.41 0 0 0-2.4-1 12.44 12.44 0 0 0-3.94-.57 8.35 8.35 0 0 0-6.69 2.71q-2.36 2.72-2.35 8v7.09h20.61v-13.19l13.9-4.23v17.44h14v11.32H897v27.5c0 3.62.65 6.17 2 7.66s3.38 2.23 6.2 2.23a9.27 9.27 0 0 0 2.89-.57 13.68 13.68 0 0 0 2.95-1.37v11.43a15.82 15.82 0 0 1-4.38 1.37 29.15 29.15 0 0 1-6 .63q-8.75 0-13.12-4.66t-4.38-14z" transform="translate(-194.7 -188.64)"/><path fill="#f26522" d="M0 6.07h92.54v92.54H0z"/><path fill="#8dc63f" d="M102.17 6.07h92.54v92.54h-92.54z"/><path fill="#00aeef" d="M0 108.23h92.54v92.54H0z"/><path fill="#ffc20e" d="M102.17 108.23h92.54v92.54h-92.54z"/></g></g></g></svg>