<?xml version="1.0" encoding="utf-8"?>
<!-- Generator: Adobe Illustrator 22.1.0, SVG Export Plug-In . SVG Version: 6.00 Build 0)  -->
<svg version="1.1" id="android-logo" xmlns="http://www.w3.org/2000/svg" xmlns:xlink="http://www.w3.org/1999/xlink" x="0px"
	 y="0px" viewBox="0 0 328.5 385.1" style="enable-background:new 0 0 328.5 385.1;" xml:space="preserve">
<style type="text/css">
	.st0{fill:#898888;}
</style>
<path class="st0" d="M31.1,127.5c-12.6,0-22.7,10.2-22.7,22.7l0,95.2c0,12.6,10.2,22.7,22.7,22.7c12.6,0,22.7-10.2,22.7-22.7l0-95.2
	C53.8,137.7,43.6,127.5,31.1,127.5 M214.4,42l15.9-29c0.8-1.5,0.3-3.4-1.2-4.3c-1.5-0.8-3.5-0.3-4.3,1.3l-16,29.3
	c-13.5-6-28.6-9.4-44.6-9.4c-15.9,0-31,3.3-44.4,9.3l-16-29.2c-0.8-1.5-2.8-2.1-4.3-1.3c-1.5,0.8-2.1,2.8-1.3,4.3l15.9,29
	c-31.2,16.1-52.3,46.7-52.3,81.9l204.8,0C266.6,88.7,245.6,58.1,214.4,42 M117.6,86.8c-4.7,0-8.6-3.8-8.6-8.6c0-4.7,3.8-8.6,8.6-8.6
	c4.7,0,8.6,3.9,8.6,8.6C126.2,82.9,122.4,86.8,117.6,86.8 M210.9,86.8c-4.7,0-8.6-3.8-8.6-8.6c0-4.7,3.8-8.6,8.6-8.6
	c4.7,0,8.6,3.9,8.6,8.6C219.5,82.9,215.6,86.8,210.9,86.8 M62.6,131.8l0,147.6c0,13.4,10.8,24.3,24.3,24.3l16.5,0l0,50.4
	c0,12.5,10.2,22.7,22.7,22.7c12.6,0,22.7-10.2,22.7-22.8l0-50.4l30.7,0l0,50.4c0,12.5,10.2,22.7,22.7,22.7
	c12.6,0,22.7-10.2,22.7-22.7l0-50.4l16.6,0c13.4,0,24.3-10.8,24.3-24.3l0-147.6L62.6,131.8z M320.2,150.2
	c0-12.6-10.2-22.7-22.7-22.7c-12.6,0-22.7,10.2-22.7,22.7l0,95.2c0,12.6,10.2,22.7,22.7,22.7c12.6,0,22.7-10.2,22.7-22.7
	L320.2,150.2z"/>
</svg>
