<svg xmlns="http://www.w3.org/2000/svg" viewBox="0 0 130.39 39.69"><defs><style>.cls-1{fill:#888787;}</style></defs><title>Asset 11</title><g id="Layer_2" data-name="Layer 2"><g id="Layer_1-2" data-name="Layer 1"><path class="cls-1" d="M29.43,1h8.74V38.53H29.43V34.61a14.44,14.44,0,0,1-11.24,5.08C6.6,39.69,0,30.06,0,19.71,0,7.49,8.38,0,18.28,0A13.68,13.68,0,0,1,29.43,5.35ZM8.92,19.89c0,6.51,4.1,12,10.43,12C24.88,31.84,30,27.83,30,20c0-8.21-5.09-12.13-10.62-12.13C13,7.85,8.92,13.2,8.92,19.89ZM48.58,1h8.74V4.37A15,15,0,0,1,61,1.25,10.1,10.1,0,0,1,66.33,0,13,13,0,0,1,73.2,1.78L69.63,9.72a7.91,7.91,0,0,0-4.46-1.34,6.8,6.8,0,0,0-5.44,2.06c-2.41,2.58-2.41,6.15-2.41,8.65V38.53H48.58ZM78.84,1h8.74V4.46A11.56,11.56,0,0,1,96.86,0a11,11,0,0,1,9.72,5.53A13.3,13.3,0,0,1,117.73,0a12,12,0,0,1,10.7,5.89c.71,1.25,2,4,2,9.45V38.53h-8.74V17.84c0-4.19-.44-5.89-.8-6.69a5,5,0,0,0-5-3.3,6.46,6.46,0,0,0-5.17,2.76C109.17,12.75,109,16,109,19.18V38.53h-8.74V17.84c0-4.19-.45-5.89-.81-6.69a4.93,4.93,0,0,0-5-3.3,6.46,6.46,0,0,0-5.17,2.76c-1.52,2.14-1.7,5.35-1.7,8.57V38.53H78.84Z"/></g></g></svg>