<?xml version="1.0" encoding="utf-8"?>
<!-- Generator: Adobe Illustrator 22.1.0, SVG Export Plug-In . SVG Version: 6.00 Build 0)  -->
<svg version="1.1" id="ios-logo" xmlns="http://www.w3.org/2000/svg" xmlns:xlink="http://www.w3.org/1999/xlink" x="0px" y="0px"
	 viewBox="0 0 196 196" style="enable-background:new 0 0 196 196;" xml:space="preserve">
<style type="text/css">
	.st0{fill:#898888;}
</style>
<path class="st0" d="M32.9,137.5h-4.6v-61h4.6V137.5z M30.5,61.6c-1.9,0-3.5-1.5-3.5-3.5c0-2,1.6-3.5,3.5-3.5c2,0,3.6,1.5,3.6,3.5
	C34.1,60.1,32.5,61.6,30.5,61.6z"/>
<path class="st0" d="M77.2,138.7c-22.3,0-36.4-16.2-36.4-42.1c0-25.7,14.2-42,36.4-42s36.4,16.3,36.4,42
	C113.6,122.5,99.5,138.7,77.2,138.7z M77.2,58.8c-19.4,0-31.8,14.7-31.8,37.8c0,23.2,12.5,37.9,31.8,37.9
	c19.4,0,31.8-14.7,31.8-37.9C109,73.5,96.6,58.8,77.2,58.8L77.2,58.8z"/>
<path class="st0" d="M146.1,138.7c-16.8,0-28.8-9.5-29.4-23h4.5c0.7,11.1,11.1,18.9,25.3,18.9c13.9,0,23.5-7.9,23.5-18.5
	c0-8.6-5.8-13.5-19.5-16.9l-9.7-2.4c-15.1-3.9-22-10-22-20.2c0-12.7,11.9-21.9,26.8-21.9c15.4,0,26.9,9.1,27.4,21.1h-4.5
	c-0.6-9.8-10.2-16.9-23-16.9c-12.3,0-22.1,7.4-22.1,17.7c0,8.2,6,12.9,19.1,16.1l9.1,2.3c15.8,3.9,22.9,10,22.9,20.8
	C174.6,129.3,163.2,138.7,146.1,138.7L146.1,138.7z"/>
</svg>
