<?xml version="1.0" encoding="utf-8"?>
<!-- Generator: Adobe Illustrator 22.1.0, SVG Export Plug-In . SVG Version: 6.00 Build 0)  -->
<svg version="1.1" id="linux-logo" xmlns="http://www.w3.org/2000/svg" xmlns:xlink="http://www.w3.org/1999/xlink" x="0px" y="0px"
	 viewBox="0 0 192.8 192.8" style="enable-background:new 0 0 192.8 192.8;" xml:space="preserve">
<style type="text/css">
	.st0{fill-rule:evenodd;clip-rule:evenodd;fill:#898888;}
	.st1{fill-rule:evenodd;clip-rule:evenodd;fill:#BABABA;}
</style>
<path class="st0" d="M44.1,127.4H2.9v-1.5c7.2-0.7,7.9-1.4,7.9-7.7V75.8c0-6.3-0.7-7-7.9-7.7v-1.5h23.7v1.5
	c-7.9,0.6-8.7,1.4-8.7,7.7v42.9c0,5.9,0.9,6.9,6.9,6.9c10.9,0,17.1-7.7,18.2-22.6h1.2V127.4L44.1,127.4z"/>
<path class="st1" d="M63.6,75.1c-2.4,0-4.4-2.5-4.4-5.5c0-3,2-5.5,4.4-5.5c2.4,0,4.4,2.5,4.4,5.5C68,72.7,66,75.1,63.6,75.1
	L63.6,75.1z M69.5,111.3c-2.8,10.4-7.4,16.7-12.3,16.7c-4.1,0-6.8-3.7-6.8-9.6c0-2.4,0.4-4.9,1.5-8.8l3.6-14.1
	c0.1-0.3,0.4-1.2,0.8-2.9c0.4-1.5,0.7-2.6,0.7-3.4c0-1.8-0.9-3-2.2-3c-3.4,0-6.4,4.6-10.1,15.3l-1.2-0.6c2-6.7,4.4-11.5,7-14.4
	c1.5-1.6,3.1-2.3,4.9-2.3c4.2,0,7.1,3.9,7.1,9.4c0,2.5-0.9,7.2-2.1,11.7l-1.8,6.5l-1.4,5.4l-0.7,2.6c-0.3,1.2-0.5,2.5-0.5,3.3
	c0,1.8,0.9,3,2.1,3c3.4,0,7.2-5.6,10.2-15.1L69.5,111.3L69.5,111.3z"/>
<path class="st0" d="M92.7,83.6c3.2,0,6.4,1.5,8.2,4c1.8,2.6,2.1,4.3,2.1,12.2v19.1c0,5.4,1.1,6.4,7,7v1.5H89.2v-1.5
	c6-0.6,7-1.6,7-6.9v-18.7c0-11.9-0.7-13.6-5.2-13.6c-4.2,0-8.1,3.5-9.9,8.8c-1.8,5-2.2,8.6-2.2,17.4v6.1c0,5.3,1,6.3,7,6.9v1.5H65.1
	v-1.5c6-0.6,7-1.6,7-6.9V93.3c0-4.7-0.2-5.5-2-6.2c-1-0.5-2-0.5-5.3-0.8v-1.6c4.2-0.1,10.4-0.5,14-1.1V97
	C81.2,88.5,86.3,83.6,92.7,83.6L92.7,83.6z"/>
<path class="st0" d="M127.8,84.7c4.8-0.1,10.6-0.5,14.1-1.1v35.3c0,5.4,1,6.4,7,7v1.5h-1l-6.3,0.4c-2.6,0.1-4.4,0.3-5.2,0.4
	c-0.3,0-0.7,0.1-1.3,0.2v-13c-1.5,4.4-2.3,5.7-4,8.1c-2.5,3.4-6.1,5.2-9.7,5.2c-3.2,0-6.1-1.5-7.7-4.2c-1.8-2.8-2.3-5.9-2.3-12.1
	v-19c0-4.7-0.3-5.5-2-6.2c-1.1-0.4-2.6-0.6-5.5-0.8v-1.6c4.4-0.1,11.1-0.5,14.3-1.1v30.7c0,7.9,1.6,11.6,5.2,11.6
	c4.1,0,8.4-4.8,10.3-11.7c1-3.5,1.4-6.9,1.4-12.2v-8.8c0-4.7-0.2-5.5-2-6.2c-0.9-0.4-2.4-0.6-5.3-0.8V84.7L127.8,84.7z"/>
<path class="st0" d="M181.9,119.7c2.9,5.1,3.9,5.8,8,6.2v1.5H170v-1.5c4.2-0.5,5.4-1,5.4-2.6c0-0.5-0.4-1.4-0.8-2.2l-1.2-2.3
	l-6.4-11l-4.8,8.3c-1.8,3.3-2.7,5.3-2.7,6.6c0,2.1,1.2,2.8,5.6,3.3v1.5h-16.7v-1.5c4.4-0.6,6.1-1.8,9.3-6.4c1.8-2.6,2-2.9,5-8
	l3.2-5.7l-7.7-13.4c-2.7-4.7-3.8-5.6-8.2-6.1v-1.5h19.5v1.5c-3.6,0.4-4.9,1-4.9,2.4c0,0.4,0.2,1,0.6,1.7l1.1,2l5.5,9.5l4.3-7.3
	c1.2-2.2,1.9-3.9,1.9-5.2c0-1.8-1.3-2.6-5.3-3.1v-1.5h15.7v1.5c-4.6,0.7-6.6,2.3-9.4,7.1l-2,3.3l-4.1,7L181.9,119.7L181.9,119.7z"/>
</svg>
