<?xml version="1.0" encoding="utf-8"?>
<!-- Generator: Adobe Illustrator 22.1.0, SVG Export Plug-In . SVG Version: 6.00 Build 0)  -->
<svg version="1.1" id="Layer_1" xmlns="http://www.w3.org/2000/svg" xmlns:xlink="http://www.w3.org/1999/xlink" x="0px" y="0px"
	 viewBox="0 0 268.5 105.7" style="enable-background:new 0 0 268.5 105.7;" xml:space="preserve">
<style type="text/css">
	.st0{fill:#C3C5C5;}
</style>
<title>Asset 6</title>
<g>
	<g>
		<g>
			<g>
				<path class="st0" d="M198.7,105.7c-3.1,0-5.9-0.8-8-2.3l0.7-1.3c2,1.4,4.5,2.2,7.3,2.2c4.9,0,5.9-1.9,5.9-3.5c0-2.2-2.3-2.8-6-3
					c-5.3-0.3-7.3-1.6-7.3-4.5c0-3.1,2.7-4.9,7.2-4.9c2.6,0,4.9,0.6,6.7,1.9l-0.7,1.3c-1.7-1.1-3.8-1.7-6.2-1.7
					c-3.3,0-5.3,1.3-5.3,3.4c0,2.2,2.3,2.8,6,3c5.3,0.3,7.3,1.6,7.3,4.5C206.3,103.9,203.6,105.7,198.7,105.7z"/>
			</g>
			<g>
				<path class="st0" d="M221.1,105.4V88.5h7.5c5.3,0,8.7,3.3,8.7,8.4c0,5.1-3.4,8.4-8.7,8.4H221.1z M222.7,104.1h5.6
					c4.5,0,7.3-2.7,7.3-7.1c0-4.4-2.8-7.1-7.3-7.1h-5.6V104.1z"/>
			</g>
			<g>
				<polygon class="st0" points="266.5,105.4 259.4,95.6 253.7,100.3 253.7,105.4 252.1,105.4 252.1,88.5 253.7,88.5 253.7,98.6 
					265.8,88.5 267.9,88.5 260.6,94.6 268.5,105.4 				"/>
			</g>
		</g>
		<g>
			<path class="st0" d="M23.9,40.9L13.3,68.4l-2.7,0L1.1,41l3.3,0L12,64.1l0,0l8.7-23.1L23.9,40.9 M25,40.2l-1.1,0l-3.1,0l-0.5,0
				l-0.2,0.5l-8,21.2l-7-21.1l-0.2-0.5l-0.5,0l-3.3,0l-1.1,0l0.3,1l9.6,27.5l0.2,0.5l0.5,0l2.7,0l0.5,0l0.2-0.5l10.5-27.5L25,40.2
				L25,40.2z"/>
			<path class="st0" d="M58.7,40.9l0,27.5l-2.9,0l0-27.5L58.7,40.9 M59.5,40.1l-0.8,0l-2.9,0l-0.8,0l0,0.8l0,27.5l0,0.8l0.8,0l2.9,0
				l0.8,0l0-0.7l0-27.5L59.5,40.1L59.5,40.1z"/>
			<path class="st0" d="M101.8,40.4c3.1,0,5.8,0.9,8.1,2.6l-1.9,2.1c-1.2-1.2-3.6-2.1-5.8-2.1c0,0,0,0,0,0c-3.4,0-5.5,1.6-5.5,4.3
				c0,3.1,3.7,4,7.3,5.3c3.6,1.3,7.2,3.1,7.2,7.6c0,6.2-5.4,8.5-9.3,8.5c0,0,0,0,0,0c-3.9,0-6.8-1.1-9.6-3.9l2.2-2
				c2.7,2.7,4.8,3.2,7.5,3.2c0,0,0,0,0,0c3.1,0,6.2-1.7,6.2-5.3c0-3.3-3.1-4.5-6.5-5.8c-3.8-1.4-7.8-2.8-7.8-7.3
				C93.7,42.7,97.5,40.4,101.8,40.4C101.8,40.4,101.8,40.4,101.8,40.4 M101.8,39.6L101.8,39.6c-5.4,0-8.8,3.2-8.8,8.1
				c0,4.9,4.3,6.5,8.1,7.9l0.2,0.1c3.6,1.4,6,2.4,6,5.1c0,1.5-0.5,2.6-1.6,3.5c-1,0.7-2.3,1.1-3.8,1.1c-2.7,0-4.5-0.5-7-2.9
				l-0.5-0.5l-0.5,0.5l-2.2,2l-0.6,0.5l0.6,0.6c2.9,2.8,6,4.1,10.2,4.1c4.1,0,10.1-2.5,10.1-9.2c0-5.1-4-7-7.6-8.3
				c-0.4-0.1-0.8-0.3-1.2-0.4c-3.5-1.2-5.6-2.2-5.6-4.2c0-1.1,0.4-1.9,1.2-2.5c0.8-0.6,2.1-1,3.6-1c1.9,0,4.2,0.8,5.2,1.9l0.6,0.6
				l0.5-0.6l1.9-2.1l0.5-0.6l-0.7-0.5C108,40.5,105.1,39.6,101.8,39.6L101.8,39.6z"/>
			<path class="st0" d="M148.2,40.8l0,27.5l-2.9,0l0-27.5L148.2,40.8 M149,40l-0.8,0l-2.9,0l-0.8,0l0,0.8l0,27.5l0,0.8l0.8,0l2.9,0
				l0.8,0l0-0.7l0-27.5L149,40L149,40z"/>
			<path class="st0" d="M196.3,40.2c7.9,0,14,6.3,14,14.2c0,7.9-6.1,14.2-14,14.2c0,0,0,0,0,0c-7.9,0-14-6.3-14-14.2
				C182.3,46.6,188.4,40.2,196.3,40.2C196.3,40.2,196.3,40.2,196.3,40.2 M196.3,66C196.4,66,196.4,66,196.3,66
				c6.3,0,10.9-5.1,10.9-11.6c0-6.5-4.6-11.5-10.9-11.5c0,0,0,0,0,0c-6.3,0-10.9,5.1-10.9,11.6C185.4,60.9,190.1,66,196.3,66
				 M196.4,39.5L196.4,39.5v0.8V39.5c-8.3,0-14.8,6.6-14.8,15c0,8.4,6.5,14.9,14.8,14.9c8.3,0,14.8-6.6,14.8-15
				C211.1,46,204.6,39.5,196.4,39.5L196.4,39.5z M196.3,66v-0.8c-5.8,0-10.2-4.6-10.2-10.8c0-6.2,4.4-10.8,10.2-10.8
				c5.8,0,10.2,4.6,10.2,10.8c0,6.2-4.4,10.8-10.2,10.8L196.3,66L196.3,66z"/>
			<path class="st0" d="M265.8,40.6l0,27.5l-2.2,0l-16.4-22l0,22.1l-2.7,0l0-27.5l2.2,0L263,62.7l0-22.1L265.8,40.6 M266.5,39.8
				l-0.8,0l-2.7,0l-0.8,0l0,0.8l0,19.8l-15.1-20.3l-0.2-0.3l-0.4,0l-2.2,0l-0.8,0l0,0.7l0,27.5l0,0.8l0.8,0l2.7,0l0.8,0l0-0.7
				l0-19.8L263,68.5l0.2,0.3l0.4,0l2.2,0l0.8,0l0-0.7l0-27.5L266.5,39.8L266.5,39.8z"/>
		</g>
	</g>
	<g>
		<g>
			<polygon class="st0" points="18,17.1 18,2.6 17.5,2.5 10.6,17.1 9.1,17.1 2.3,2.5 1.7,2.6 1.7,17.1 0.1,17.1 0.1,0.3 3,0.3 
				9.9,15.2 16.9,0.3 19.7,0.3 19.7,17.1 			"/>
		</g>
		<g>
			<path class="st0" d="M48.7,17.1l-2.2-4.6h-9.9l-2.2,4.6h-1.8l7.9-16.8h2l7.9,16.8H48.7z M37.2,11.1h8.6l-4.3-9.3L37.2,11.1z"/>
		</g>
		<g>
			<path class="st0" d="M63.4,17.1V0.3h9.7c3.6,0,5.6,1.8,5.6,5c0,3.2-2,5-5.6,5h-8v6.8H63.4z M65.2,9h7.5C75.5,9,77,7.7,77,5.3
				s-1.4-3.6-4.3-3.6h-7.5V9z"/>
		</g>
		<g>
			<path class="st0" d="M91.9,17.1V0.3h9.9c2.5,0,5.5,0.7,5.5,4.3c0,1.8-0.9,3-2.6,3.6l-0.9,0.3l0.9,0.3c2.1,0.6,3.1,1.9,3.1,3.9
				c0,3.6-3.1,4.4-5.7,4.4H91.9z M93.6,15.7h8.4c3.4,0,4.1-1.7,4.1-3.2c0-2.1-1.4-3.2-4.1-3.2h-8.4V15.7z M93.6,7.9h8.1
				c3.2,0,3.9-1.7,3.9-3.1c0-1.4-0.7-3.1-3.9-3.1h-8.1V7.9z"/>
		</g>
		<g>
			<path class="st0" d="M129.5,17.4c-5.5,0-9.2-3.5-9.2-8.7S124,0,129.5,0c5.5,0,9.2,3.5,9.2,8.7S135,17.4,129.5,17.4z M129.5,1.5
				c-4.5,0-7.4,2.9-7.4,7.2s3,7.2,7.4,7.2c4.5,0,7.4-2.9,7.4-7.2S133.9,1.5,129.5,1.5z"/>
		</g>
		<g>
			<polygon class="st0" points="164,17.1 157.9,9.7 151.7,17.1 149.6,17.1 156.8,8.5 150,0.3 152.2,0.3 158,7.3 163.8,0.3 
				165.9,0.3 159.1,8.5 166.2,17.1 			"/>
		</g>
	</g>
</g>
</svg>
